<svg width="42" height="33" viewBox="0 0 42 33" fill="none" xmlns="http://www.w3.org/2000/svg">
<path d="M9.1875 27.125H20.625C23.625 27.125 26.25 29.5625 26.25 32.5625V32.9375L37.875 20.9375C42.375 16.25 42.375 8.9375 37.875 4.25C35.625 2.1875 32.8125 0.875 29.8125 0.875C26.8125 0.875 23.8125 2.1875 21.5625 4.4375L20.625 5.375L19.6875 4.4375C17.4375 2.1875 14.625 0.875 11.4375 0.875C8.4375 0.875 5.625 2.1875 3.375 4.4375C-1.125 9.125 -1.125 16.4375 3.375 21.125L9.1875 27.125ZM11.25 15.875H14.25L17.4375 12.6875C17.8125 12.3125 18.375 12.125 19.125 12.125C19.6875 12.3125 20.25 12.6875 20.4375 13.0625L22.3125 16.8125L24.5625 11.375C24.75 10.8125 25.3125 10.25 26.0625 10.25C26.8125 10.25 27.375 10.4375 27.75 11L31.5 16.625C32.0625 17.5625 31.875 18.6875 30.9375 19.25C30 19.8125 28.875 19.625 28.3125 18.6875L26.625 16.0625L24.1875 22.0625C24 22.8125 23.25 23.375 22.5 23.375C21.75 23.375 21.1875 23 20.8125 22.25L18.1875 17L16.3125 18.875C15.9375 19.4375 15.5625 19.625 15 19.625H11.25C10.125 19.625 9.375 18.875 9.375 17.75C9.375 16.625 10.125 15.875 11.25 15.875Z" fill="#009688"/>
</svg>
