<svg width="54" height="54" viewBox="0 0 54 54" fill="none" xmlns="http://www.w3.org/2000/svg">
<path d="M52.6797 25.6895C51.9297 24.9395 50.8047 24.9395 50.0547 25.6895C48.9297 26.8145 47.0547 27.002 45.7422 26.0645C45.5547 22.3145 44.2422 18.9395 42.1797 16.127C44.4297 15.002 46.1172 12.5645 46.1172 9.75195C46.1172 8.62695 45.3672 7.87695 44.2422 7.87695C43.1172 7.87695 42.3672 8.62695 42.3672 9.75195C42.3672 11.4395 41.2422 12.752 39.5547 13.127C36.9297 10.6895 33.7422 9.18945 29.9922 8.43945C30.7422 6.00195 30.1797 3.18945 28.3047 1.12695C27.5547 0.376953 26.4297 0.376953 25.6797 1.12695C24.9297 1.87695 24.9297 3.00195 25.6797 3.75195C26.8047 5.06445 26.9922 6.93945 26.0547 8.25195C22.3047 8.43945 18.9297 9.75195 16.1172 11.8145C14.8047 9.56445 12.5547 7.87695 9.74219 7.87695C8.61719 7.87695 7.86719 8.62695 7.86719 9.75195C7.86719 10.877 8.61719 11.627 9.74219 11.627C11.4297 11.627 12.7422 12.752 13.1172 14.4395C10.6797 17.0645 9.17969 20.252 8.42969 24.002C5.99219 23.252 3.17969 23.8145 1.11719 25.6895C0.367188 26.4395 0.367188 27.5645 1.11719 28.3145C1.86719 29.0645 2.99219 29.0645 3.74219 28.3145C5.05469 27.1895 6.92969 27.002 8.24219 27.9395C8.42969 31.6895 9.74219 35.0645 11.8047 37.877C9.55469 39.002 7.86719 41.4395 7.86719 44.252C7.86719 45.377 8.61719 46.127 9.74219 46.127C10.8672 46.127 11.6172 45.377 11.6172 44.252C11.6172 42.5645 12.7422 41.252 14.4297 40.877C17.0547 43.3145 20.2422 44.8145 23.9922 45.5645C23.2422 48.002 23.8047 50.8145 25.6797 52.877C26.0547 53.252 26.6172 53.4395 26.9922 53.4395C27.3672 53.4395 27.9297 53.252 28.3047 52.877C29.0547 52.127 29.0547 51.002 28.3047 50.252C27.1797 49.127 26.9922 47.252 27.9297 45.9395C31.6797 45.752 35.0547 44.4395 37.8672 42.377C38.9922 44.627 41.4297 46.3145 44.2422 46.3145C45.3672 46.3145 46.1172 45.5645 46.1172 44.4395C46.1172 43.3145 45.3672 42.5645 44.2422 42.5645C42.5547 42.5645 41.2422 41.4395 40.8672 39.752C43.3047 37.127 44.8047 33.9395 45.5547 30.1895C46.3047 30.377 47.0547 30.5645 47.6172 30.5645C49.4922 30.5645 51.3672 29.8145 52.6797 28.502C53.4297 27.5645 53.4297 26.4395 52.6797 25.6895ZM22.3047 36.377C19.6797 36.377 17.6172 34.3145 17.6172 31.6895C17.6172 29.0645 19.6797 27.002 22.3047 27.002C24.9297 27.002 26.9922 29.0645 26.9922 31.6895C26.9922 34.3145 24.9297 36.377 22.3047 36.377ZM26.4297 18.9395L20.8047 24.5645C20.4297 24.9395 20.0547 25.127 19.4922 25.127C18.9297 25.127 18.5547 24.9395 18.1797 24.5645C17.4297 23.8145 17.4297 22.6895 18.1797 21.9395L23.8047 16.3145C24.5547 15.5645 25.6797 15.5645 26.4297 16.3145C27.1797 17.0645 27.1797 18.1895 26.4297 18.9395ZM33.9297 27.5645C34.1172 27.752 34.4922 28.3145 34.4922 28.877C34.4922 30.002 33.7422 30.752 32.6172 30.752C31.4922 30.752 30.7422 30.002 30.7422 28.877C30.7422 28.127 31.1172 27.752 31.3047 27.5645C31.6797 27.1895 31.8672 26.627 31.8672 26.0645C31.8672 25.502 31.6797 24.9395 31.3047 24.5645C31.1172 24.377 30.7422 24.002 30.7422 23.252C30.7422 22.127 31.4922 21.377 32.6172 21.377C33.7422 21.377 34.4922 22.127 34.4922 23.252C34.4922 24.002 34.1172 24.377 33.9297 24.5645C33.5547 24.9395 33.3672 25.502 33.3672 26.0645C33.3672 26.627 33.3672 27.1895 33.9297 27.5645Z" fill="#009688"/>
</svg>
