<svg width="48" height="53" viewBox="0 0 48 53" fill="none" xmlns="http://www.w3.org/2000/svg">
<path d="M31.4368 1.625C30.3118 1.625 29.3743 1.8125 28.2493 2C26.1868 -0.0624999 22.4368 -0.0624999 20.3743 2C18.8743 3.5 17.7493 7.8125 17.3743 10.0625C16.0618 10.8125 14.1868 10.8125 13.0618 9.5C12.3118 8.75 11.1868 8.75 10.4368 9.5C9.68677 10.25 9.68677 11.375 10.4368 12.125C11.7493 13.8125 13.6243 14.375 15.4993 14.375C16.9993 14.375 18.4993 13.8125 19.8118 12.875C22.0618 12.5 26.7493 11.375 28.4368 9.875C29.5618 8.75 30.1243 7.0625 30.1243 5.375C30.4993 5.375 30.8743 5.375 31.4368 5.375C38.1868 5.375 43.6243 10.8125 43.6243 17.5625C43.6243 24.3125 38.1868 29.75 31.4368 29.75H25.4368L37.2493 21.875C37.9993 21.5 38.1868 20.5625 37.9993 19.8125C37.8118 19.0625 37.0618 18.5 36.1243 18.5H2.37427C1.62427 18.5 0.874268 19.0625 0.499268 19.8125C0.311768 20.5625 0.499268 21.5 1.24927 21.875L13.2493 29.75C10.2493 30.5 7.99927 33.125 7.99927 36.3125C7.99927 39.875 10.9993 42.875 14.5618 42.875H17.3743V48.5H13.6243C12.4993 48.5 11.7493 49.25 11.7493 50.375C11.7493 51.5 12.4993 52.25 13.6243 52.25H22.0618C25.6243 52.25 28.6243 49.25 28.6243 45.6875C28.6243 42.125 25.6243 39.125 22.0618 39.125H21.1243V33.5H31.4368C40.2493 33.5 47.3743 26.375 47.3743 17.5625C47.3743 8.75 40.2493 1.625 31.4368 1.625ZM11.7493 36.3125C11.7493 34.8125 13.0618 33.5 14.5618 33.5H17.3743V39.125H14.5618C13.0618 39.125 11.7493 37.8125 11.7493 36.3125ZM24.8743 45.6875C24.8743 47.1875 23.5618 48.5 22.0618 48.5H21.1243V42.875H22.0618C23.5618 42.875 24.8743 44.1875 24.8743 45.6875Z" fill="#009688"/>
</svg>
