<svg width="54" height="29" viewBox="0 0 54 29" fill="none" xmlns="http://www.w3.org/2000/svg">
<path d="M53.0586 1.8125C52.6836 1.25 52.1211 0.875 51.3711 0.875C47.2461 0.875 43.3086 2.75 40.8711 6.125L39.1836 8.375C37.1211 10.8125 33.9336 12.125 30.7461 12.125H25.1211C23.9961 12.125 23.2461 11.375 23.2461 10.25C23.2461 9.125 23.9961 8.375 25.1211 8.375H28.6836C31.6836 8.375 34.4961 5.9375 34.4961 2.9375V2.75C34.4961 1.8125 33.5586 0.875 32.6211 0.875H21.1836C14.4336 0.875 8.99609 3.875 5.99609 8.75L0.933594 16.625C0.558594 17.1875 0.558594 17.9375 0.933594 18.5L6.55859 27.875C6.74609 28.25 7.30859 28.625 7.68359 28.8125C7.87109 28.8125 7.87109 28.8125 8.05859 28.8125C8.43359 28.8125 8.80859 28.625 9.18359 28.4375C16.3086 23.75 24.5586 21.3125 32.9961 21.3125C39.1836 21.3125 44.8086 17.9375 47.8086 12.5L52.8711 3.5C53.2461 3.125 53.2461 2.375 53.0586 1.8125Z" fill="#009688"/>
</svg>
